<mxfile host="app.diagrams.net" agent="Mozilla/5.0 (Windows NT 10.0; Win64; x64) AppleWebKit/537.36 (KHTML, like Gecko) Chrome/131.0.0.0 Safari/537.36" version="25.0.3">
  <diagram name="PÃ¡gina-1" id="bZatFBl9ebDqjxLjRNU3">
    <mxGraphModel dx="1114" dy="1769" grid="1" gridSize="10" guides="1" tooltips="1" connect="1" arrows="1" fold="1" page="1" pageScale="1" pageWidth="827" pageHeight="1169" math="0" shadow="0">
      <root>
        <mxCell id="0" />
        <mxCell id="1" parent="0" />
        <mxCell id="NVolJul2ixn7JM4CX_-I-2" style="edgeStyle=orthogonalEdgeStyle;rounded=0;orthogonalLoop=1;jettySize=auto;html=1;exitX=0.5;exitY=1;exitDx=0;exitDy=0;" edge="1" parent="1" source="NVolJul2ixn7JM4CX_-I-1">
          <mxGeometry relative="1" as="geometry">
            <mxPoint x="180" y="20" as="targetPoint" />
          </mxGeometry>
        </mxCell>
        <mxCell id="NVolJul2ixn7JM4CX_-I-1" value="inicio" style="ellipse;whiteSpace=wrap;html=1;" vertex="1" parent="1">
          <mxGeometry x="120" y="-100" width="120" height="80" as="geometry" />
        </mxCell>
        <mxCell id="NVolJul2ixn7JM4CX_-I-7" style="edgeStyle=orthogonalEdgeStyle;rounded=0;orthogonalLoop=1;jettySize=auto;html=1;" edge="1" parent="1">
          <mxGeometry relative="1" as="geometry">
            <mxPoint x="180" y="80" as="sourcePoint" />
            <mxPoint x="180" y="111" as="targetPoint" />
          </mxGeometry>
        </mxCell>
        <mxCell id="NVolJul2ixn7JM4CX_-I-33" value="" style="edgeStyle=none;rounded=0;orthogonalLoop=1;jettySize=auto;html=1;" edge="1" parent="1" source="NVolJul2ixn7JM4CX_-I-6" target="NVolJul2ixn7JM4CX_-I-15">
          <mxGeometry relative="1" as="geometry" />
        </mxCell>
        <mxCell id="NVolJul2ixn7JM4CX_-I-6" value="encerra = &quot;n&quot;" style="rounded=1;whiteSpace=wrap;html=1;" vertex="1" parent="1">
          <mxGeometry x="125" y="110" width="110" height="40" as="geometry" />
        </mxCell>
        <mxCell id="NVolJul2ixn7JM4CX_-I-12" value="saldo" style="html=1;strokeWidth=2;shape=manualInput;whiteSpace=wrap;rounded=1;size=26;arcSize=11;" vertex="1" parent="1">
          <mxGeometry x="130" y="20" width="90" height="60" as="geometry" />
        </mxCell>
        <mxCell id="NVolJul2ixn7JM4CX_-I-13" value="&quot;Saldo incial: &quot; + saldo&amp;nbsp;" style="shape=display;whiteSpace=wrap;html=1;" vertex="1" parent="1">
          <mxGeometry x="280" y="10" width="90" height="80" as="geometry" />
        </mxCell>
        <mxCell id="NVolJul2ixn7JM4CX_-I-14" style="edgeStyle=none;rounded=0;orthogonalLoop=1;jettySize=auto;html=1;entryX=0;entryY=0.5;entryDx=0;entryDy=0;entryPerimeter=0;" edge="1" parent="1" source="NVolJul2ixn7JM4CX_-I-12" target="NVolJul2ixn7JM4CX_-I-13">
          <mxGeometry relative="1" as="geometry" />
        </mxCell>
        <mxCell id="NVolJul2ixn7JM4CX_-I-34" value="" style="edgeStyle=none;rounded=0;orthogonalLoop=1;jettySize=auto;html=1;" edge="1" parent="1" source="NVolJul2ixn7JM4CX_-I-15" target="NVolJul2ixn7JM4CX_-I-16">
          <mxGeometry relative="1" as="geometry" />
        </mxCell>
        <mxCell id="NVolJul2ixn7JM4CX_-I-15" value="encerra == &quot;n&quot;" style="rhombus;whiteSpace=wrap;html=1;" vertex="1" parent="1">
          <mxGeometry x="130" y="180" width="100" height="100" as="geometry" />
        </mxCell>
        <mxCell id="NVolJul2ixn7JM4CX_-I-35" value="" style="edgeStyle=none;rounded=0;orthogonalLoop=1;jettySize=auto;html=1;" edge="1" parent="1" source="NVolJul2ixn7JM4CX_-I-16">
          <mxGeometry relative="1" as="geometry">
            <mxPoint x="180" y="410" as="targetPoint" />
          </mxGeometry>
        </mxCell>
        <mxCell id="NVolJul2ixn7JM4CX_-I-16" value="tipo de entrada" style="html=1;strokeWidth=2;shape=manualInput;whiteSpace=wrap;rounded=1;size=26;arcSize=11;" vertex="1" parent="1">
          <mxGeometry x="130" y="310" width="100" height="60" as="geometry" />
        </mxCell>
        <mxCell id="NVolJul2ixn7JM4CX_-I-22" style="edgeStyle=none;rounded=0;orthogonalLoop=1;jettySize=auto;html=1;entryX=0;entryY=0.5;entryDx=0;entryDy=0;" edge="1" parent="1" source="NVolJul2ixn7JM4CX_-I-19" target="NVolJul2ixn7JM4CX_-I-20">
          <mxGeometry relative="1" as="geometry" />
        </mxCell>
        <mxCell id="NVolJul2ixn7JM4CX_-I-40" value="" style="edgeStyle=none;rounded=0;orthogonalLoop=1;jettySize=auto;html=1;" edge="1" parent="1" source="NVolJul2ixn7JM4CX_-I-19" target="NVolJul2ixn7JM4CX_-I-24">
          <mxGeometry relative="1" as="geometry" />
        </mxCell>
        <mxCell id="NVolJul2ixn7JM4CX_-I-19" value="tipo entrada = 1" style="rhombus;whiteSpace=wrap;html=1;" vertex="1" parent="1">
          <mxGeometry x="130" y="495" width="105" height="100" as="geometry" />
        </mxCell>
        <mxCell id="NVolJul2ixn7JM4CX_-I-23" style="edgeStyle=none;rounded=0;orthogonalLoop=1;jettySize=auto;html=1;" edge="1" parent="1" source="NVolJul2ixn7JM4CX_-I-20" target="NVolJul2ixn7JM4CX_-I-21">
          <mxGeometry relative="1" as="geometry" />
        </mxCell>
        <mxCell id="NVolJul2ixn7JM4CX_-I-20" value="saldo = saldo + quantidade" style="rounded=1;whiteSpace=wrap;html=1;" vertex="1" parent="1">
          <mxGeometry x="265" y="515" width="120" height="60" as="geometry" />
        </mxCell>
        <mxCell id="NVolJul2ixn7JM4CX_-I-50" value="" style="edgeStyle=orthogonalEdgeStyle;rounded=0;orthogonalLoop=1;jettySize=auto;html=1;entryX=0.5;entryY=0;entryDx=0;entryDy=0;" edge="1" parent="1" source="NVolJul2ixn7JM4CX_-I-21" target="NVolJul2ixn7JM4CX_-I-24">
          <mxGeometry relative="1" as="geometry">
            <Array as="points">
              <mxPoint x="470" y="610" />
              <mxPoint x="178" y="610" />
              <mxPoint x="178" y="630" />
            </Array>
          </mxGeometry>
        </mxCell>
        <mxCell id="NVolJul2ixn7JM4CX_-I-21" value="&quot;Entrada: &quot; + quantidade" style="strokeWidth=2;html=1;shape=mxgraph.flowchart.display;whiteSpace=wrap;" vertex="1" parent="1">
          <mxGeometry x="420" y="510" width="100" height="60" as="geometry" />
        </mxCell>
        <mxCell id="NVolJul2ixn7JM4CX_-I-29" style="edgeStyle=none;rounded=0;orthogonalLoop=1;jettySize=auto;html=1;entryX=0;entryY=0.5;entryDx=0;entryDy=0;" edge="1" parent="1" source="NVolJul2ixn7JM4CX_-I-24" target="NVolJul2ixn7JM4CX_-I-25">
          <mxGeometry relative="1" as="geometry" />
        </mxCell>
        <mxCell id="NVolJul2ixn7JM4CX_-I-43" value="" style="edgeStyle=none;rounded=0;orthogonalLoop=1;jettySize=auto;html=1;entryX=0.5;entryY=0;entryDx=0;entryDy=0;entryPerimeter=0;" edge="1" parent="1" source="NVolJul2ixn7JM4CX_-I-24" target="NVolJul2ixn7JM4CX_-I-41">
          <mxGeometry relative="1" as="geometry">
            <mxPoint x="185" y="820" as="targetPoint" />
          </mxGeometry>
        </mxCell>
        <mxCell id="NVolJul2ixn7JM4CX_-I-24" value="tipo entrada = 2" style="rhombus;whiteSpace=wrap;html=1;" vertex="1" parent="1">
          <mxGeometry x="130" y="630" width="110" height="110" as="geometry" />
        </mxCell>
        <mxCell id="NVolJul2ixn7JM4CX_-I-30" style="edgeStyle=none;rounded=0;orthogonalLoop=1;jettySize=auto;html=1;entryX=0;entryY=0.5;entryDx=0;entryDy=0;" edge="1" parent="1" source="NVolJul2ixn7JM4CX_-I-25" target="NVolJul2ixn7JM4CX_-I-26">
          <mxGeometry relative="1" as="geometry" />
        </mxCell>
        <mxCell id="NVolJul2ixn7JM4CX_-I-32" value="" style="edgeStyle=none;rounded=0;orthogonalLoop=1;jettySize=auto;html=1;" edge="1" parent="1" source="NVolJul2ixn7JM4CX_-I-25" target="NVolJul2ixn7JM4CX_-I-28">
          <mxGeometry relative="1" as="geometry" />
        </mxCell>
        <mxCell id="NVolJul2ixn7JM4CX_-I-25" value="saldo &amp;gt;= quantidade" style="rhombus;whiteSpace=wrap;html=1;" vertex="1" parent="1">
          <mxGeometry x="265" y="630" width="126" height="110" as="geometry" />
        </mxCell>
        <mxCell id="NVolJul2ixn7JM4CX_-I-31" value="" style="edgeStyle=none;rounded=0;orthogonalLoop=1;jettySize=auto;html=1;" edge="1" parent="1" source="NVolJul2ixn7JM4CX_-I-26" target="NVolJul2ixn7JM4CX_-I-27">
          <mxGeometry relative="1" as="geometry" />
        </mxCell>
        <mxCell id="NVolJul2ixn7JM4CX_-I-26" value="saldo = saldo - quantidade" style="rounded=1;whiteSpace=wrap;html=1;" vertex="1" parent="1">
          <mxGeometry x="440" y="640" width="120" height="75" as="geometry" />
        </mxCell>
        <mxCell id="NVolJul2ixn7JM4CX_-I-27" value="&quot;Saida: &quot; + quantidade" style="strokeWidth=2;html=1;shape=mxgraph.flowchart.display;whiteSpace=wrap;" vertex="1" parent="1">
          <mxGeometry x="430" y="780" width="150" height="70" as="geometry" />
        </mxCell>
        <mxCell id="NVolJul2ixn7JM4CX_-I-46" value="" style="edgeStyle=none;rounded=0;orthogonalLoop=1;jettySize=auto;html=1;entryX=1;entryY=0.5;entryDx=0;entryDy=0;entryPerimeter=0;" edge="1" parent="1" source="NVolJul2ixn7JM4CX_-I-28" target="NVolJul2ixn7JM4CX_-I-41">
          <mxGeometry relative="1" as="geometry">
            <mxPoint x="325" y="927.5" as="targetPoint" />
          </mxGeometry>
        </mxCell>
        <mxCell id="NVolJul2ixn7JM4CX_-I-28" value="&quot;saldo insuficiente&quot;" style="strokeWidth=2;html=1;shape=mxgraph.flowchart.display;whiteSpace=wrap;" vertex="1" parent="1">
          <mxGeometry x="250" y="782.5" width="160" height="67.5" as="geometry" />
        </mxCell>
        <mxCell id="NVolJul2ixn7JM4CX_-I-36" style="edgeStyle=none;rounded=0;orthogonalLoop=1;jettySize=auto;html=1;exitX=0.5;exitY=0;exitDx=0;exitDy=0;" edge="1" parent="1" source="NVolJul2ixn7JM4CX_-I-19" target="NVolJul2ixn7JM4CX_-I-19">
          <mxGeometry relative="1" as="geometry" />
        </mxCell>
        <mxCell id="NVolJul2ixn7JM4CX_-I-39" value="" style="edgeStyle=none;rounded=0;orthogonalLoop=1;jettySize=auto;html=1;" edge="1" parent="1" source="NVolJul2ixn7JM4CX_-I-38" target="NVolJul2ixn7JM4CX_-I-19">
          <mxGeometry relative="1" as="geometry" />
        </mxCell>
        <mxCell id="NVolJul2ixn7JM4CX_-I-38" value="quantidade" style="html=1;strokeWidth=2;shape=manualInput;whiteSpace=wrap;rounded=1;size=26;arcSize=11;" vertex="1" parent="1">
          <mxGeometry x="130" y="400" width="100" height="60" as="geometry" />
        </mxCell>
        <mxCell id="NVolJul2ixn7JM4CX_-I-52" value="" style="edgeStyle=orthogonalEdgeStyle;rounded=0;orthogonalLoop=1;jettySize=auto;html=1;" edge="1" parent="1" source="NVolJul2ixn7JM4CX_-I-41" target="NVolJul2ixn7JM4CX_-I-51">
          <mxGeometry relative="1" as="geometry" />
        </mxCell>
        <mxCell id="NVolJul2ixn7JM4CX_-I-41" value="saldo" style="strokeWidth=2;html=1;shape=mxgraph.flowchart.display;whiteSpace=wrap;" vertex="1" parent="1">
          <mxGeometry x="130" y="860" width="100" height="60" as="geometry" />
        </mxCell>
        <mxCell id="NVolJul2ixn7JM4CX_-I-44" style="edgeStyle=none;rounded=0;orthogonalLoop=1;jettySize=auto;html=1;entryX=0.5;entryY=1;entryDx=0;entryDy=0;entryPerimeter=0;" edge="1" parent="1" source="NVolJul2ixn7JM4CX_-I-28" target="NVolJul2ixn7JM4CX_-I-28">
          <mxGeometry relative="1" as="geometry" />
        </mxCell>
        <mxCell id="NVolJul2ixn7JM4CX_-I-47" style="edgeStyle=none;rounded=0;orthogonalLoop=1;jettySize=auto;html=1;entryX=1;entryY=0.5;entryDx=0;entryDy=0;entryPerimeter=0;" edge="1" parent="1" source="NVolJul2ixn7JM4CX_-I-27" target="NVolJul2ixn7JM4CX_-I-41">
          <mxGeometry relative="1" as="geometry" />
        </mxCell>
        <mxCell id="NVolJul2ixn7JM4CX_-I-49" style="edgeStyle=orthogonalEdgeStyle;rounded=0;orthogonalLoop=1;jettySize=auto;html=1;entryX=0;entryY=0.75;entryDx=0;entryDy=0;" edge="1" parent="1" source="NVolJul2ixn7JM4CX_-I-15" target="NVolJul2ixn7JM4CX_-I-51">
          <mxGeometry relative="1" as="geometry">
            <Array as="points">
              <mxPoint x="110" y="230" />
              <mxPoint x="110" y="1000" />
              <mxPoint x="130" y="1000" />
            </Array>
          </mxGeometry>
        </mxCell>
        <mxCell id="NVolJul2ixn7JM4CX_-I-54" value="" style="edgeStyle=orthogonalEdgeStyle;rounded=0;orthogonalLoop=1;jettySize=auto;html=1;" edge="1" parent="1" source="NVolJul2ixn7JM4CX_-I-51" target="NVolJul2ixn7JM4CX_-I-53">
          <mxGeometry relative="1" as="geometry" />
        </mxCell>
        <mxCell id="NVolJul2ixn7JM4CX_-I-51" value="encerra ? (S/N)" style="html=1;strokeWidth=2;shape=manualInput;whiteSpace=wrap;rounded=1;size=26;arcSize=11;" vertex="1" parent="1">
          <mxGeometry x="130" y="950" width="100" height="60" as="geometry" />
        </mxCell>
        <mxCell id="NVolJul2ixn7JM4CX_-I-56" value="" style="edgeStyle=orthogonalEdgeStyle;rounded=0;orthogonalLoop=1;jettySize=auto;html=1;" edge="1" parent="1" source="NVolJul2ixn7JM4CX_-I-53" target="NVolJul2ixn7JM4CX_-I-55">
          <mxGeometry relative="1" as="geometry" />
        </mxCell>
        <mxCell id="NVolJul2ixn7JM4CX_-I-53" value="&quot;System Off&quot;" style="strokeWidth=2;html=1;shape=mxgraph.flowchart.display;whiteSpace=wrap;" vertex="1" parent="1">
          <mxGeometry x="130" y="1050" width="100" height="60" as="geometry" />
        </mxCell>
        <mxCell id="NVolJul2ixn7JM4CX_-I-55" value="fim" style="html=1;dashed=0;whiteSpace=wrap;shape=mxgraph.dfd.start" vertex="1" parent="1">
          <mxGeometry x="140" y="1139" width="80" height="30" as="geometry" />
        </mxCell>
      </root>
    </mxGraphModel>
  </diagram>
</mxfile>
